<svg width="358" height="300" viewBox="0 0 358 300" fill="none" xmlns="http://www.w3.org/2000/svg">
<path d="M102.019 214.615C89.908 214.615 79.4216 211.917 70.5599 206.521C61.7573 201.125 54.9633 193.476 50.178 183.574C45.3927 173.671 43 161.931 43 148.352V148.174C43 134.595 45.3927 122.884 50.178 113.041C55.0224 103.139 61.8459 95.4898 70.6485 90.0939C79.5102 84.698 89.967 82 102.019 82C114.071 82 124.498 84.698 133.301 90.0939C142.103 95.4898 148.897 103.139 153.683 113.041C158.468 122.884 160.861 134.595 160.861 148.174V148.352C160.861 161.931 158.468 173.671 153.683 183.574C148.897 193.476 142.103 201.125 133.301 206.521C124.557 211.917 114.13 214.615 102.019 214.615ZM102.019 199.85C110.822 199.85 118.384 197.745 124.705 193.535C131.085 189.266 135.989 183.277 139.415 175.569C142.842 167.86 144.555 158.788 144.555 148.352V148.174C144.555 137.679 142.812 128.577 139.327 120.868C135.9 113.16 130.997 107.23 124.616 103.08C118.236 98.8697 110.703 96.7647 102.019 96.7647C93.3345 96.7647 85.7725 98.8697 79.333 103.08C72.9526 107.23 68.0195 113.16 64.5339 120.868C61.0483 128.518 59.3055 137.619 59.3055 148.174V148.352C59.3055 158.847 61.0483 167.949 64.5339 175.658C68.0195 183.366 72.9526 189.325 79.333 193.535C85.7134 197.745 93.2754 199.85 102.019 199.85Z" fill="url(#paint0_linear_14_117)"/>
<path d="M236.595 214.925L236.343 86.5799L313.972 86.4264L314 100.835L252.323 100.957L252.409 145.073L309.035 144.961L309.063 159.192L252.437 159.304L252.546 214.894L236.595 214.925Z" fill="url(#paint1_linear_14_117)"/>
<path d="M194.489 217C185.273 217.018 177.147 215.611 170.111 212.779C163.134 209.887 157.573 205.777 153.427 200.449C149.34 195.12 147.024 188.81 146.478 181.517L146.386 180.272L162.338 180.241L162.517 181.486C163.175 185.754 164.926 189.456 167.767 192.593C170.609 195.671 174.365 198.065 179.036 199.775C183.765 201.426 189.202 202.246 195.346 202.233C201.49 202.221 206.806 201.351 211.292 199.623C215.779 197.835 219.23 195.308 221.646 192.042C224.12 188.776 225.354 184.949 225.345 180.561L225.345 180.472C225.334 174.839 223.375 170.336 219.47 166.964C215.564 163.592 209.208 160.936 200.401 158.997L186.216 155.912C173.745 153.149 164.491 148.899 158.454 143.159C152.476 137.36 149.478 129.776 149.459 120.407L149.459 120.318C149.504 113.262 151.442 107.061 155.271 101.717C159.101 96.3137 164.38 92.0932 171.109 89.0558C177.897 85.959 185.662 84.4019 194.406 84.3847C202.736 84.3682 210.183 85.8655 216.746 88.8766C223.31 91.8284 228.546 95.9688 232.456 101.298C236.425 106.626 238.652 112.789 239.139 119.785L239.23 121.119L223.279 121.15L223.099 119.905C222.441 115.519 220.838 111.786 218.292 108.708C215.745 105.63 212.403 103.264 208.264 101.612C204.184 99.9601 199.427 99.1394 193.992 99.1502C188.32 99.1614 183.36 100.031 179.109 101.759C174.859 103.487 171.555 105.895 169.198 108.983C166.9 112.071 165.755 115.69 165.764 119.841L165.764 119.93C165.774 125.148 167.762 129.443 171.726 132.815C175.691 136.187 181.841 138.784 190.174 140.606L204.359 143.691C213.106 145.571 220.2 148.077 225.642 151.209C231.142 154.34 235.167 158.246 237.717 162.925C240.325 167.545 241.636 173.117 241.649 179.639L241.649 179.728C241.664 187.318 239.757 193.903 235.928 199.485C232.158 205.066 226.731 209.376 219.647 212.414C212.623 215.452 204.237 216.981 194.489 217Z" fill="url(#paint2_linear_14_117)"/>
<defs>
<linearGradient id="paint0_linear_14_117" x1="178.5" y1="82" x2="178.5" y2="217" gradientUnits="userSpaceOnUse">
<stop stop-color="white"/>
<stop offset="1" stop-color="#565656"/>
</linearGradient>
<linearGradient id="paint1_linear_14_117" x1="178.5" y1="82" x2="178.5" y2="217" gradientUnits="userSpaceOnUse">
<stop stop-color="white"/>
<stop offset="1" stop-color="#565656"/>
</linearGradient>
<linearGradient id="paint2_linear_14_117" x1="178.5" y1="82" x2="178.5" y2="217" gradientUnits="userSpaceOnUse">
<stop stop-color="white"/>
<stop offset="1" stop-color="#565656"/>
</linearGradient>
</defs>
</svg>
