<svg width="465" height="300" viewBox="0 0 465 300" fill="none" xmlns="http://www.w3.org/2000/svg">
<path d="M0 0H465V300H0V0Z" fill="black"/>
<path d="M275.25 208.781C271.5 208.781 268.206 207.922 265.367 206.203C262.555 204.484 260.354 202.049 258.766 198.898C257.203 195.721 256.422 191.984 256.422 187.688V187.609C256.422 183.286 257.203 179.562 258.766 176.438C260.354 173.286 262.555 170.865 265.367 169.172C268.206 167.453 271.487 166.594 275.211 166.594C278.961 166.594 282.242 167.453 285.055 169.172C287.893 170.865 290.094 173.286 291.656 176.438C293.245 179.562 294.039 183.286 294.039 187.609V187.688C294.039 192.01 293.245 195.747 291.656 198.898C290.094 202.049 287.906 204.484 285.094 206.203C282.281 207.922 279 208.781 275.25 208.781ZM275.289 202.766C277.685 202.766 279.755 202.18 281.5 201.008C283.271 199.81 284.638 198.091 285.602 195.852C286.591 193.586 287.086 190.865 287.086 187.688V187.609C287.086 184.432 286.591 181.724 285.602 179.484C284.638 177.245 283.258 175.539 281.461 174.367C279.69 173.195 277.607 172.609 275.211 172.609C272.867 172.609 270.797 173.208 269 174.406C267.229 175.578 265.849 177.284 264.859 179.523C263.87 181.737 263.375 184.432 263.375 187.609V187.688C263.375 190.865 263.87 193.586 264.859 195.852C265.849 198.091 267.229 199.81 269 201.008C270.797 202.18 272.893 202.766 275.289 202.766ZM300.914 208V167.375H307.711V174.25H307.867C308.544 171.906 309.716 170.044 311.383 168.664C313.049 167.284 315.029 166.594 317.32 166.594C317.919 166.594 318.453 166.633 318.922 166.711C319.417 166.763 319.794 166.815 320.055 166.867V173.469C319.794 173.365 319.326 173.273 318.648 173.195C317.997 173.117 317.255 173.078 316.422 173.078C314.677 173.078 313.141 173.469 311.812 174.25C310.51 175.031 309.495 176.164 308.766 177.648C308.062 179.107 307.711 180.865 307.711 182.922V208H300.914ZM325.602 208V167.375H332.398V173.312H332.555C333.466 171.307 334.898 169.693 336.852 168.469C338.805 167.219 341.083 166.594 343.688 166.594C345.536 166.594 347.203 166.906 348.688 167.531C350.198 168.13 351.5 169.016 352.594 170.188C353.688 171.333 354.521 172.74 355.094 174.406H355.25C356.005 172.766 357.008 171.372 358.258 170.227C359.534 169.055 360.992 168.156 362.633 167.531C364.299 166.906 366.083 166.594 367.984 166.594C370.667 166.594 372.997 167.154 374.977 168.273C376.956 169.367 378.492 170.917 379.586 172.922C380.68 174.901 381.227 177.245 381.227 179.953V208H374.43V181.516C374.43 179.641 374.091 178.039 373.414 176.711C372.763 175.383 371.812 174.367 370.562 173.664C369.312 172.961 367.789 172.609 365.992 172.609C364.195 172.609 362.607 173.026 361.227 173.859C359.846 174.667 358.766 175.799 357.984 177.258C357.203 178.69 356.812 180.331 356.812 182.18V208H350.016V180.773C350.016 179.133 349.664 177.701 348.961 176.477C348.284 175.253 347.32 174.302 346.07 173.625C344.846 172.948 343.388 172.609 341.695 172.609C339.898 172.609 338.297 173.052 336.891 173.938C335.51 174.797 334.417 175.969 333.609 177.453C332.802 178.938 332.398 180.63 332.398 182.531V208H325.602ZM404.312 208.781C401.135 208.781 398.388 208.273 396.07 207.258C393.753 206.242 391.917 204.823 390.562 203C389.234 201.177 388.427 199.055 388.141 196.633L388.102 196.281H394.898L394.977 196.672C395.393 198.703 396.37 200.292 397.906 201.438C399.443 202.557 401.591 203.117 404.352 203.117C406.201 203.117 407.776 202.883 409.078 202.414C410.38 201.919 411.383 201.229 412.086 200.344C412.789 199.432 413.141 198.365 413.141 197.141V197.102C413.141 195.643 412.698 194.471 411.812 193.586C410.927 192.701 409.326 191.971 407.008 191.398L400.562 189.836C398.01 189.211 395.888 188.404 394.195 187.414C392.529 186.398 391.279 185.161 390.445 183.703C389.612 182.245 389.195 180.539 389.195 178.586V178.547C389.195 176.203 389.82 174.133 391.07 172.336C392.346 170.539 394.104 169.133 396.344 168.117C398.609 167.102 401.201 166.594 404.117 166.594C407.086 166.594 409.664 167.128 411.852 168.195C414.065 169.237 415.797 170.669 417.047 172.492C418.323 174.289 419.039 176.32 419.195 178.586L419.234 179.094H412.75L412.711 178.82C412.451 176.841 411.578 175.253 410.094 174.055C408.635 172.857 406.643 172.258 404.117 172.258C402.477 172.258 401.057 172.505 399.859 173C398.661 173.495 397.737 174.198 397.086 175.109C396.461 175.995 396.148 177.036 396.148 178.234V178.273C396.148 179.185 396.357 180.018 396.773 180.773C397.216 181.503 397.906 182.141 398.844 182.688C399.781 183.234 400.992 183.69 402.477 184.055L408.922 185.617C413.036 186.607 415.927 187.974 417.594 189.719C419.26 191.438 420.094 193.742 420.094 196.633V196.672C420.094 199.042 419.404 201.138 418.023 202.961C416.669 204.784 414.794 206.216 412.398 207.258C410.029 208.273 407.333 208.781 404.312 208.781Z" fill="url(#paint0_linear_19_37)"/>
<path d="M101.019 205.615C88.908 205.615 78.4216 202.917 69.5599 197.521C60.7573 192.125 53.9633 184.476 49.178 174.574C44.3927 164.671 42 152.931 42 139.352V139.174C42 125.595 44.3927 113.884 49.178 104.041C54.0224 94.139 60.8459 86.4898 69.6485 81.0939C78.5102 75.698 88.967 73 101.019 73C113.071 73 123.498 75.698 132.301 81.0939C141.103 86.4898 147.897 94.139 152.683 104.041C157.468 113.884 159.861 125.595 159.861 139.174V139.352C159.861 152.931 157.468 164.671 152.683 174.574C147.897 184.476 141.103 192.125 132.301 197.521C123.557 202.917 113.13 205.615 101.019 205.615ZM101.019 190.85C109.822 190.85 117.384 188.745 123.705 184.535C130.085 180.266 134.989 174.277 138.415 166.569C141.842 158.86 143.555 149.788 143.555 139.352V139.174C143.555 128.679 141.812 119.577 138.327 111.868C134.9 104.16 129.997 98.2304 123.616 94.0797C117.236 89.8697 109.703 87.7647 101.019 87.7647C92.3345 87.7647 84.7725 89.8697 78.333 94.0797C71.9526 98.2304 67.0195 104.16 63.5339 111.868C60.0483 119.518 58.3055 128.619 58.3055 139.174V139.352C58.3055 149.847 60.0483 158.949 63.5339 166.658C67.0195 174.366 71.9526 180.325 78.333 184.535C84.7134 188.745 92.2754 190.85 101.019 190.85Z" fill="url(#paint1_linear_19_37)"/>
<path d="M235.595 205.925L235.343 77.5799L312.972 77.4264L313 91.8352L251.323 91.9572L251.409 136.073L308.035 135.961L308.063 150.192L251.437 150.304L251.546 205.894L235.595 205.925Z" fill="url(#paint2_linear_19_37)"/>
<path d="M312.972 77.4264L313 91.8352L218.454 180.004L207.482 172.741L312.972 77.4264Z" fill="black"/>
<path d="M125.899 73.8498L137.044 80.8424L64.4193 197.441L53.275 190.448L125.899 73.8498Z" fill="black"/>
<path d="M193.489 208C184.273 208.018 176.147 206.611 169.111 203.779C162.134 200.887 156.573 196.777 152.427 191.449C148.34 186.12 146.024 179.81 145.478 172.517L145.386 171.272L161.338 171.241L161.517 172.486C162.175 176.754 163.926 180.456 166.767 183.593C169.609 186.671 173.365 189.065 178.036 190.775C182.765 192.426 188.202 193.246 194.346 193.233C200.49 193.221 205.806 192.351 210.292 190.623C214.779 188.835 218.23 186.308 220.646 183.042C223.12 179.776 224.354 175.949 224.345 171.561L224.345 171.472C224.334 165.839 222.375 161.336 218.47 157.964C214.564 154.592 208.208 151.936 199.401 149.997L185.216 146.912C172.745 144.149 163.491 139.899 157.454 134.159C151.476 128.36 148.478 120.776 148.459 111.407L148.459 111.318C148.504 104.262 150.442 98.0614 154.271 92.7172C158.101 87.3137 163.38 83.0932 170.109 80.0558C176.897 76.959 184.662 75.4019 193.406 75.3847C201.736 75.3682 209.183 76.8655 215.746 79.8766C222.31 82.8284 227.546 86.9688 231.456 92.2977C235.425 97.6264 237.652 103.789 238.139 110.785L238.23 112.119L222.279 112.15L222.099 110.905C221.441 106.519 219.838 102.786 217.292 99.708C214.745 96.6297 211.403 94.2644 207.264 92.6124C203.184 90.9601 198.427 90.1394 192.992 90.1502C187.32 90.1614 182.36 91.031 178.109 92.759C173.859 94.487 170.555 96.895 168.198 99.983C165.9 103.071 164.755 106.69 164.764 110.841L164.764 110.93C164.774 116.148 166.762 120.443 170.726 123.815C174.691 127.187 180.841 129.784 189.174 131.606L203.359 134.691C212.106 136.571 219.2 139.077 224.642 142.209C230.142 145.34 234.167 149.246 236.717 153.925C239.325 158.545 240.636 164.117 240.649 170.639L240.649 170.728C240.664 178.318 238.757 184.903 234.928 190.485C231.158 196.066 225.731 200.376 218.647 203.414C211.623 206.452 203.237 207.981 193.489 208Z" fill="url(#paint3_linear_19_37)"/>
<path d="M155.383 87.5166L166.275 80.1346L178.254 97.9398L167.362 105.322L155.383 87.5166Z" fill="black"/>
<path d="M209.518 167.303L220.512 160.074L251.612 207.726L236.461 206.896L209.518 167.303Z" fill="black"/>
<path d="M159.277 153.387L170.421 160.38L141.199 207.296L130.055 200.303L159.277 153.387Z" fill="black"/>
<defs>
<linearGradient id="paint0_linear_19_37" x1="338.5" y1="132" x2="338.5" y2="227" gradientUnits="userSpaceOnUse">
<stop stop-color="white"/>
<stop offset="1" stop-color="#565656"/>
</linearGradient>
<linearGradient id="paint1_linear_19_37" x1="177.5" y1="73" x2="177.5" y2="208" gradientUnits="userSpaceOnUse">
<stop stop-color="white"/>
<stop offset="1" stop-color="#565656"/>
</linearGradient>
<linearGradient id="paint2_linear_19_37" x1="177.5" y1="73" x2="177.5" y2="208" gradientUnits="userSpaceOnUse">
<stop stop-color="white"/>
<stop offset="1" stop-color="#565656"/>
</linearGradient>
<linearGradient id="paint3_linear_19_37" x1="177.5" y1="73" x2="177.5" y2="208" gradientUnits="userSpaceOnUse">
<stop stop-color="white"/>
<stop offset="1" stop-color="#565656"/>
</linearGradient>
</defs>
</svg>
